<svg width="32" height="32" viewBox="0 0 32 32" fill="none" xmlns="http://www.w3.org/2000/svg">
  <!-- Background circle -->
  <circle cx="16" cy="16" r="16" fill="#2563eb"/>
  
  <!-- Stethoscope icon -->
  <path d="M8 12c0-1.1.9-2 2-2s2 .9 2 2v4c0 2.2 1.8 4 4 4s4-1.8 4-4v-4c0-1.1.9-2 2-2s2 .9 2 2v4c0 3.3-2.7 6-6 6-1.4 0-2.6-.5-3.6-1.3l-.8 1.6c-.2.4-.7.7-1.2.7h-.8c-.6 0-1-.4-1-1v-1c0-.3.1-.5.3-.7l1.3-2.6c-.7-1.1-1.2-2.4-1.2-3.7V12z" fill="white"/>
  
  <!-- Medical cross accent -->
  <circle cx="24" cy="24" r="3" fill="#dc2626"/>
  <path d="M23 22h2v4h-2v-4z" fill="white"/>
  <path d="M22 23h4v2h-4v-2z" fill="white"/>
</svg>